<?xml version="1.0" standalone="no"?><!DOCTYPE svg PUBLIC "-//W3C//DTD SVG 1.1//EN" "http://www.w3.org/Graphics/SVG/1.1/DTD/svg11.dtd"><svg t="1591996614152" class="icon" viewBox="0 0 1024 1024" version="1.1" xmlns="http://www.w3.org/2000/svg" p-id="9982" width="600" height="600" xmlns:xlink="http://www.w3.org/1999/xlink"><defs><style type="text/css"></style></defs><path d="M17.066667 76.8h938.666666v716.8H17.066667z" fill="#ECF0F1" p-id="9983"></path><path d="M972.8 810.666667H0v-750.933334h972.8v750.933334z m-938.666667-34.133334h904.533334v-682.666666H34.133333v682.666666z" fill="#545E73" p-id="9984"></path><path d="M85.333333 145.066667h802.133334v580.266666H85.333333z" fill="#545E73" p-id="9985"></path><path d="M904.533333 742.4H68.266667v-614.4h836.266666v614.4z m-802.133333-34.133333h768v-546.133334H102.4v546.133334z" fill="#ECF0F1" p-id="9986"></path><path d="M256 291.310933m-77.9776 0a77.9776 77.9776 0 1 0 155.9552 0 77.9776 77.9776 0 1 0-155.9552 0Z" fill="#F3D55A" p-id="9987"></path><path d="M870.4 556.561067L853.333333 537.6l-204.8-187.733333L469.333333 546.133333l93.576534 93.576534L631.466667 708.266667h238.933333z" fill="#11A085" p-id="9988"></path><path d="M102.4 708.266667h529.066667l-68.5568-68.5568-187.153067-187.153067L102.4 691.2z" fill="#26B999" p-id="9989"></path><path d="M819.2 759.466667m-204.8 0a204.8 204.8 0 1 0 409.6 0 204.8 204.8 0 1 0-409.6 0Z" fill="#71C386" p-id="9990"></path><path d="M921.6 742.4h-85.333333v-85.333333a17.066667 17.066667 0 0 0-34.133334 0v85.333333h-85.333333a17.066667 17.066667 0 0 0 0 34.133333h85.333333v85.333334a17.066667 17.066667 0 0 0 34.133334 0v-85.333334h85.333333a17.066667 17.066667 0 0 0 0-34.133333z" fill="#FFFFFF" p-id="9991"></path></svg>